<?xml version="1.0" encoding="UTF-8" standalone="no"?>
<svg
   viewBox="0 0 24 24"
   version="1.1"
   id="svg1"
   sodipodi:docname="dangerous-wind.svg"
   inkscape:version="1.4.2 (ebf0e940d0, 2025-05-08)"
   xmlns:inkscape="http://www.inkscape.org/namespaces/inkscape"
   xmlns:sodipodi="http://sodipodi.sourceforge.net/DTD/sodipodi-0.dtd"
   xmlns="http://www.w3.org/2000/svg"
   xmlns:svg="http://www.w3.org/2000/svg">
  <defs
     id="defs1">
    <inkscape:path-effect
       effect="fillet_chamfer"
       id="path-effect13"
       is_visible="true"
       lpeversion="1"
       nodesatellites_param="F,0,0,1,0,0,0,1 @ F,0,0,1,0,0,0,1 @ F,0,0,1,0,0,0,1 @ F,0,0,1,0,0,0,1 @ F,0,0,1,0,0,0,1"
       radius="0"
       unit="px"
       method="auto"
       mode="F"
       chamfer_steps="1"
       flexible="false"
       use_knot_distance="true"
       apply_no_radius="true"
       apply_with_radius="true"
       only_selected="false"
       hide_knots="false" />
    <inkscape:path-effect
       effect="fillet_chamfer"
       id="path-effect11"
       is_visible="true"
       lpeversion="1"
       nodesatellites_param="F,0,0,1,0,0,0,1 @ F,0,0,1,0,0,0,1 @ F,0,0,1,0,0,0,1 @ F,0,0,1,0,0,0,1 @ F,0,0,1,0,0,0,1"
       radius="0"
       unit="px"
       method="auto"
       mode="F"
       chamfer_steps="1"
       flexible="false"
       use_knot_distance="true"
       apply_no_radius="true"
       apply_with_radius="true"
       only_selected="false"
       hide_knots="false" />
    <inkscape:path-effect
       effect="fillet_chamfer"
       id="path-effect9"
       is_visible="true"
       lpeversion="1"
       nodesatellites_param="F,0,0,1,0,1.4386383,0,1 @ F,0,0,1,0,0.97594618,0,1 @ F,0,0,1,0,1.0581715,0,1"
       radius="0"
       unit="px"
       method="auto"
       mode="F"
       chamfer_steps="1"
       flexible="false"
       use_knot_distance="true"
       apply_no_radius="true"
       apply_with_radius="true"
       only_selected="false"
       hide_knots="false" />
    <inkscape:path-effect
       effect="fillet_chamfer"
       id="path-effect7"
       is_visible="true"
       lpeversion="1"
       nodesatellites_param="F,0,0,1,0,1.4386383,0,1 @ F,0,0,1,0,0.97594618,0,1 @ F,0,0,1,0,1.0581715,0,1 | F,0,0,1,0,0,0,1 @ F,0,0,1,0,0,0,1 @ F,0,0,1,0,0,0,1 | F,0,0,1,0,0,0,1 @ F,0,0,1,0,0,0,1 @ F,0,0,1,0,0,0,1 @ F,0,0,1,0,0,0,1 @ F,0,0,1,0,0,0,1 | F,0,0,1,0,0,0,1 @ F,0,0,1,0,0,0,1 @ F,0,0,1,0,0,0,1 @ F,0,0,1,0,0,0,1 @ F,0,0,1,0,0,0,1"
       radius="0"
       unit="px"
       method="auto"
       mode="F"
       chamfer_steps="1"
       flexible="false"
       use_knot_distance="true"
       apply_no_radius="true"
       apply_with_radius="true"
       only_selected="false"
       hide_knots="false" />
    <inkscape:path-effect
       effect="fillet_chamfer"
       id="path-effect7-7"
       is_visible="true"
       lpeversion="1"
       nodesatellites_param="F,0,0,1,0,0,0,1 @ F,0,0,1,0,0,0,1 @ F,0,0,1,0,0,0,1"
       radius="0"
       unit="px"
       method="auto"
       mode="F"
       chamfer_steps="1"
       flexible="false"
       use_knot_distance="true"
       apply_no_radius="true"
       apply_with_radius="true"
       only_selected="false"
       hide_knots="false" />
  </defs>
  <sodipodi:namedview
     id="namedview1"
     pagecolor="#ffffff"
     bordercolor="#000000"
     borderopacity="0.25"
     inkscape:showpageshadow="2"
     inkscape:pageopacity="0.0"
     inkscape:pagecheckerboard="0"
     inkscape:deskcolor="#d1d1d1"
     inkscape:zoom="2.1375"
     inkscape:cx="40.233918"
     inkscape:cy="-0.93567251"
     inkscape:window-width="1503"
     inkscape:window-height="934"
     inkscape:window-x="2560"
     inkscape:window-y="973"
     inkscape:window-maximized="1"
     inkscape:current-layer="svg1" />
  <g
     id="g7"
     transform="translate(0.04135157,-8.3529573)">
    <path
       id="path4"
       inkscape:path-effect="#path-effect7"
       inkscape:original-d="m 7.1170456,20.644309 -5.5,9.5 H 12.617046 Z m -0.041351,2 3.7650004,6.5 H 3.3106943 Z M 6.6170455,24.68566 v 2 h 1 v -2 h -1 m 0,3 v 1 h 1 v -1 h -1"
       d="M 6.3962356,21.889344 2.10603,29.2997 a 0.56268426,0.56268426 60.034291 0 0 0.4869618,0.844609 H 11.558875 A 0.61009145,0.61009145 119.96571 0 0 12.086864,29.22854 L 7.8378556,21.889344 a 0.83289589,0.83289589 180 0 0 -1.44162,0 z m 0.679459,0.754965 3.7650004,6.5 H 3.3106943 Z M 6.6170455,24.68566 v 2 h 1 v -2 h -1 m 0,3 v 1 h 1 v -1 h -1" />
  </g>
  <path
     id="path3"
     style="display:inline"
     d="M 4 16 A 1 1 0 0 0 3 17 A 1 1 0 0 0 3.2480469 17.660156 L 4.2089844 16 L 4 16 z M 9.84375 16 L 11.001953 18 L 18 18 A 1 1 0 0 1 19 19 A 1 1 0 0 1 18 20 C 17.72 20 17.469062 19.890937 17.289062 19.710938 C 16.899064 19.320937 16.270859 19.320937 15.880859 19.710938 C 15.500859 20.100936 15.500859 20.729141 15.880859 21.119141 C 16.420859 21.659141 17.17 22 18 22 A 3 3 0 0 0 21 19 A 3 3 0 0 0 18 16 L 9.84375 16 z " />
  <path
     id="path2"
     d="M 19 8 C 18.17 8 17.420859 8.3408594 16.880859 8.8808594 C 16.500859 9.2708594 16.500859 9.8990625 16.880859 10.289062 C 17.270859 10.679063 17.899062 10.679063 18.289062 10.289062 C 18.469062 10.109063 18.72 10 19 10 A 1 1 0 0 1 20 11 A 1 1 0 0 1 19 12 L 7.5292969 12 L 8.6875 14 L 19 14 A 3 3 0 0 0 22 11 A 3 3 0 0 0 19 8 z M 5 12 A 1 1 0 0 0 4 13 A 1 1 0 0 0 5 14 L 5.3671875 14 L 6.5253906 12 L 5 12 z " />
  <path
     d="M 4,10 A 1,1 0 0 1 3,9 1,1 0 0 1 4,8 h 8 A 2,2 0 0 0 14,6 2,2 0 0 0 12,4 C 11.45,4 10.95,4.22 10.59,4.59 10.2,5 9.56,5 9.17,4.59 8.78,4.2 8.78,3.56 9.17,3.17 9.9,2.45 10.9,2 12,2 a 4,4 0 0 1 4,4 4,4 0 0 1 -4,4 H 4"
     id="path1" />
</svg>
