<?xml version="1.0" encoding="UTF-8" standalone="no"?>
<svg
   viewBox="0 0 24 24"
   version="1.1"
   id="svg1"
   sodipodi:docname="dangerous-wind.svg"
   inkscape:version="1.4.2 (ebf0e940d0, 2025-05-08)"
   xmlns:inkscape="http://www.inkscape.org/namespaces/inkscape"
   xmlns:sodipodi="http://sodipodi.sourceforge.net/DTD/sodipodi-0.dtd"
   xmlns="http://www.w3.org/2000/svg"
   xmlns:svg="http://www.w3.org/2000/svg">
  <defs
     id="defs1">
    <inkscape:path-effect
       effect="fillet_chamfer"
       id="path-effect16"
       is_visible="true"
       lpeversion="1"
       nodesatellites_param="F,0,0,1,0,0,0,1 @ F,0,0,1,0,0,0,1 @ F,0,0,1,0,0,0,1 @ F,0,0,1,0,0,0,1 @ F,0,0,1,0,0,0,1"
       radius="0"
       unit="px"
       method="auto"
       mode="F"
       chamfer_steps="1"
       flexible="false"
       use_knot_distance="true"
       apply_no_radius="true"
       apply_with_radius="true"
       only_selected="false"
       hide_knots="false" />
    <inkscape:path-effect
       effect="fillet_chamfer"
       id="path-effect14"
       is_visible="true"
       lpeversion="1"
       nodesatellites_param="F,0,0,1,0,0,0,1 @ F,0,0,1,0,0,0,1 @ F,0,0,1,0,0,0,1 @ F,0,0,1,0,0,0,1 @ F,0,0,1,0,0,0,1"
       radius="0"
       unit="px"
       method="auto"
       mode="F"
       chamfer_steps="1"
       flexible="false"
       use_knot_distance="true"
       apply_no_radius="true"
       apply_with_radius="true"
       only_selected="false"
       hide_knots="false" />
    <inkscape:path-effect
       effect="fillet_chamfer"
       id="path-effect10"
       is_visible="true"
       lpeversion="1"
       nodesatellites_param="F,0,0,1,0,1.4386383,0,1 @ F,0,0,1,0,0.97594618,0,1 @ F,0,0,1,0,1.0581715,0,1"
       radius="0"
       unit="px"
       method="auto"
       mode="F"
       chamfer_steps="1"
       flexible="false"
       use_knot_distance="true"
       apply_no_radius="true"
       apply_with_radius="true"
       only_selected="false"
       hide_knots="false" />
    <inkscape:path-effect
       effect="fillet_chamfer"
       id="path-effect6"
       is_visible="true"
       lpeversion="1"
       nodesatellites_param="F,0,0,1,0,0,0,1 @ F,0,0,1,0,0,0,1 @ F,0,0,1,0,0,0,1"
       radius="0"
       unit="px"
       method="auto"
       mode="F"
       chamfer_steps="1"
       flexible="false"
       use_knot_distance="true"
       apply_no_radius="true"
       apply_with_radius="true"
       only_selected="false"
       hide_knots="false" />
    <inkscape:path-effect
       effect="fillet_chamfer"
       id="path-effect13"
       is_visible="true"
       lpeversion="1"
       nodesatellites_param="F,0,0,1,0,0,0,1 @ F,0,0,1,0,0,0,1 @ F,0,0,1,0,0,0,1 @ F,0,0,1,0,0,0,1 @ F,0,0,1,0,0,0,1"
       radius="0"
       unit="px"
       method="auto"
       mode="F"
       chamfer_steps="1"
       flexible="false"
       use_knot_distance="true"
       apply_no_radius="true"
       apply_with_radius="true"
       only_selected="false"
       hide_knots="false" />
    <inkscape:path-effect
       effect="fillet_chamfer"
       id="path-effect11"
       is_visible="true"
       lpeversion="1"
       nodesatellites_param="F,0,0,1,0,0,0,1 @ F,0,0,1,0,0,0,1 @ F,0,0,1,0,0,0,1 @ F,0,0,1,0,0,0,1 @ F,0,0,1,0,0,0,1"
       radius="0"
       unit="px"
       method="auto"
       mode="F"
       chamfer_steps="1"
       flexible="false"
       use_knot_distance="true"
       apply_no_radius="true"
       apply_with_radius="true"
       only_selected="false"
       hide_knots="false" />
    <inkscape:path-effect
       effect="fillet_chamfer"
       id="path-effect9"
       is_visible="true"
       lpeversion="1"
       nodesatellites_param="F,0,0,1,0,1.4386383,0,1 @ F,0,0,1,0,0.97594618,0,1 @ F,0,0,1,0,1.0581715,0,1"
       radius="0"
       unit="px"
       method="auto"
       mode="F"
       chamfer_steps="1"
       flexible="false"
       use_knot_distance="true"
       apply_no_radius="true"
       apply_with_radius="true"
       only_selected="false"
       hide_knots="false" />
    <inkscape:path-effect
       effect="fillet_chamfer"
       id="path-effect7"
       is_visible="true"
       lpeversion="1"
       nodesatellites_param="F,0,0,1,0,1.4386383,0,1 @ F,0,0,1,0,0.97594618,0,1 @ F,0,0,1,0,1.0581715,0,1 | F,0,0,1,0,0,0,1 @ F,0,0,1,0,0,0,1 @ F,0,0,1,0,0,0,1 | F,0,0,1,0,0,0,1 @ F,0,0,1,0,0,0,1 @ F,0,0,1,0,0,0,1 @ F,0,0,1,0,0,0,1 @ F,0,0,1,0,0,0,1 | F,0,0,1,0,0,0,1 @ F,0,0,1,0,0,0,1 @ F,0,0,1,0,0,0,1 @ F,0,0,1,0,0,0,1 @ F,0,0,1,0,0,0,1"
       radius="0"
       unit="px"
       method="auto"
       mode="F"
       chamfer_steps="1"
       flexible="false"
       use_knot_distance="true"
       apply_no_radius="true"
       apply_with_radius="true"
       only_selected="false"
       hide_knots="false" />
    <inkscape:path-effect
       effect="fillet_chamfer"
       id="path-effect7-7"
       is_visible="true"
       lpeversion="1"
       nodesatellites_param="F,0,0,1,0,0,0,1 @ F,0,0,1,0,0,0,1 @ F,0,0,1,0,0,0,1"
       radius="0"
       unit="px"
       method="auto"
       mode="F"
       chamfer_steps="1"
       flexible="false"
       use_knot_distance="true"
       apply_no_radius="true"
       apply_with_radius="true"
       only_selected="false"
       hide_knots="false" />
  </defs>
  <sodipodi:namedview
     id="namedview1"
     pagecolor="#ffffff"
     bordercolor="#000000"
     borderopacity="0.25"
     inkscape:showpageshadow="2"
     inkscape:pageopacity="0.0"
     inkscape:pagecheckerboard="0"
     inkscape:deskcolor="#d1d1d1"
     inkscape:zoom="24.183052"
     inkscape:cx="11.909167"
     inkscape:cy="14.183487"
     inkscape:window-width="1503"
     inkscape:window-height="934"
     inkscape:window-x="0"
     inkscape:window-y="29"
     inkscape:window-maximized="1"
     inkscape:current-layer="svg1" />
  <g
     id="g7"
     transform="matrix(1.163143,0,0,1.178206,-0.78609407,-13.600801)">
    <path
       id="path4"
       inkscape:path-effect="#path-effect7"
       inkscape:original-d="m 7.1170456,20.644309 -5.5,9.5 H 12.617046 Z m -0.041351,2 3.7650004,6.5 H 3.3106943 Z M 6.6170455,24.68566 v 2 h 1 v -2 h -1 m 0,3 v 1 h 1 v -1 h -1"
       d="M 6.3962356,21.889344 2.10603,29.2997 a 0.56268426,0.56268426 60.034291 0 0 0.4869618,0.844609 H 11.558875 A 0.61009145,0.61009145 119.96571 0 0 12.086864,29.22854 L 7.8378556,21.889344 a 0.83289589,0.83289589 180 0 0 -1.44162,0 z m 0.679459,0.754965 3.7650004,6.5 H 3.3106943 Z M 6.6170455,24.68566 v 2 h 1 v -2 h -1 m 0,3 v 1 h 1 v -1 h -1" />
  </g>
  <path
     id="path3"
     style="display:inline"
     d="m 12.409942,16.041351 1.158203,2 h 4.886719 a 1,1 0 0 1 1,1 1,1 0 0 1 -1,1 c -0.28,0 -0.530938,-0.109063 -0.710938,-0.289062 -0.389998,-0.390001 -1.018203,-0.390001 -1.408203,0 -0.38,0.389998 -0.38,1.018203 0,1.408203 0.54,0.54 1.289141,0.880859 2.119141,0.880859 a 3,3 0 0 0 3,-3 3,3 0 0 0 -3,-3 z" />
  <path
     id="path2"
     d="m 19.454864,8.0413513 c -0.83,0 -1.579141,0.3408594 -2.119141,0.8808594 -0.38,0.39 -0.38,1.0182041 0,1.4082023 0.39,0.390001 1.018203,0.390001 1.408203,0 0.18,-0.179997 0.430938,-0.289062 0.710938,-0.289062 a 1,1 0 0 1 1,1 1,1 0 0 1 -1,1 h -9.361328 l 1.158203,2 h 8.203125 a 3,3 0 0 0 3,-3 3,3 0 0 0 -3,-2.9999997 z" />
  <path
     id="path1"
     d="m 12.454864,2.0413513 c -1.1,0 -2.100078,0.4499219 -2.8300781,1.1699219 -0.39,0.39 -0.39,1.0299219 0,1.4199219 0.3900001,0.41 1.0299221,0.41 1.4199221,0 0.36,-0.3700001 0.860156,-0.5898438 1.410156,-0.5898438 a 2,2 0 0 1 2,2 2,2 0 0 1 -2,2 h -8 a 1,1 0 0 0 -1,1 1,1 0 0 0 1,0.9999997 h 3.0800781 a 2.2936415,2.2936415 0 0 1 0.078125,-0.002 2.2936415,2.2936415 0 0 1 0.080078,0.002 h 4.7617188 a 4,4 0 0 0 4,-3.9999997 4,4 0 0 0 -4,-4 z" />
  <g
     id="g5"
     transform="translate(0.04135157,-8.3529573)" />
</svg>
