<svg xmlns="http://www.w3.org/2000/svg" viewBox="0 0 24 24"><path d="M 6.0,16.0 A 5.0,5.0 0.0 0,1 1.0,11.0 A 5.0,5.0 0.0 0,1 6.0,6.0 C 7.0,3.65 9.3,2.0 12.0,2.0 C 15.43,2.0 18.24,4.66 18.5,8.03 L 19.0,8.0 A 4.0,4.0 0.0 0,1 23.0,12.0 A 4.0,4.0 0.0 0,1 19.0,16.0 L 18.0,16.0 A 1.0,1.0 0.0 0,1 17.0,15.0 A 1.0,1.0 0.0 0,1 18.0,14.0 L 19.0,14.0 A 2.0,2.0 0.0 0,0 21.0,12.0 A 2.0,2.0 0.0 0,0 19.0,10.0 L 17.0,10.0 L 17.0,9.0 A 5.0,5.0 0.0 0,0 12.0,4.0 C 9.5,4.0 7.45,5.82 7.06,8.19 C 6.73,8.07 6.37,8.0 6.0,8.0 A 3.0,3.0 0.0 0,0 3.0,11.0 A 3.0,3.0 0.0 0,0 6.0,14.0 L 7.0,14.0 A 1.0,1.0 0.0 0,1 8.0,15.0 A 1.0,1.0 0.0 0,1 7.0,16.0 L 6.0,16.0 M 5.999999999999999,18.1525 C 6.062999999999999,18.2365 6.129499999999999,18.331 6.196,18.429 C 6.35,18.646 6.699999999999999,19.1605 6.699999999999999,19.5 C 6.699999999999999,19.8885 6.384999999999999,20.2 5.999999999999999,20.2 A 0.7,0.7 0.0 0,1 5.3,19.5 C 5.3,19.1605 5.65,18.646 5.803999999999999,18.429 C 5.8705,18.331 5.936999999999999,18.24 5.999999999999999,18.1525 M 5.999999999999999,17.060499999999998 L 5.824999999999999,17.2565 C 5.824999999999999,17.2565 5.5275,17.5925 5.2265,18.0335 C 4.9254999999999995,18.471 4.6,18.996 4.6,19.5 A 1.4,1.4 0.0 0,0 5.999999999999999,20.9 A 1.4,1.4 0.0 0,0 7.3999999999999995,19.5 C 7.3999999999999995,18.996 7.0745,18.471 6.773499999999999,18.0335 C 6.472499999999999,17.5925 6.174999999999999,17.2565 6.174999999999999,17.2565 M 10.0,19.1525 C 10.062999999999999,19.2365 10.1295,19.331 10.196,19.429 C 10.35,19.646 10.7,20.1605 10.7,20.5 C 10.7,20.8885 10.384999999999998,21.2 10.0,21.2 A 0.7,0.7 0.0 0,1 9.3,20.5 C 9.3,20.1605 9.65,19.646 9.803999999999998,19.429 C 9.8705,19.331 9.937,19.24 10.0,19.1525 M 10.0,18.060499999999998 L 9.825,18.2565 C 9.825,18.2565 9.5275,18.5925 9.2265,19.0335 C 8.9255,19.471 8.6,19.996 8.6,20.5 A 1.4,1.4 0.0 0,0 10.0,21.9 A 1.4,1.4 0.0 0,0 11.399999999999999,20.5 C 11.399999999999999,19.996 11.0745,19.471 10.773499999999999,19.0335 C 10.4725,18.5925 10.174999999999999,18.2565 10.174999999999999,18.2565 M 12.558,19.0245 L 13.3245,18.825 L 12.761000000000001,18.258 C 12.624500000000001,18.125 12.624500000000001,17.901 12.761000000000001,17.761 C 12.8975,17.624499999999998 13.125,17.624499999999998 13.258000000000001,17.761 L 13.825,18.3245 L 14.0245,17.558 C 14.073500000000001,17.369 14.266,17.2605 14.4515,17.3095 C 14.6405,17.3585 14.749,17.551 14.7,17.74 L 14.493500000000001,18.5065 L 15.260000000000002,18.299999999999997 C 15.449000000000002,18.250999999999998 15.6415,18.3595 15.6905,18.548499999999997 C 15.7395,18.733999999999998 15.631,18.926499999999997 15.442,18.975499999999997 L 14.6755,19.174999999999997 L 15.239,19.741999999999997 C 15.375499999999999,19.875 15.375499999999999,20.1025 15.239,20.238999999999997 C 15.1025,20.3755 14.875,20.3755 14.742,20.238999999999997 L 14.175,19.6755 L 13.9755,20.442 C 13.9265,20.631 13.734,20.7395 13.5485,20.6905 C 13.3595,20.6415 13.251000000000001,20.448999999999998 13.3,20.259999999999998 L 13.5065,19.493499999999997 L 12.74,19.7 C 12.551,19.749 12.3585,19.6405 12.3095,19.4515 C 12.2605,19.266 12.369,19.0735 12.558,19.0245 M 16.558,20.0245 L 17.3245,19.825 L 16.761000000000003,19.258 C 16.6245,19.125 16.6245,18.901 16.761000000000003,18.761 C 16.8975,18.624499999999998 17.125,18.624499999999998 17.258000000000003,18.761 L 17.825,19.3245 L 18.0245,18.558 C 18.073500000000003,18.369 18.266,18.2605 18.4515,18.3095 C 18.6405,18.3585 18.749000000000002,18.551 18.7,18.74 L 18.4935,19.5065 L 19.26,19.299999999999997 C 19.449,19.250999999999998 19.6415,19.3595 19.6905,19.548499999999997 C 19.7395,19.733999999999998 19.631,19.926499999999997 19.442,19.975499999999997 L 18.6755,20.174999999999997 L 19.239,20.741999999999997 C 19.3755,20.875 19.3755,21.1025 19.239,21.238999999999997 C 19.1025,21.3755 18.875,21.3755 18.742,21.238999999999997 L 18.175,20.6755 L 17.9755,21.442 C 17.9265,21.631 17.734,21.7395 17.5485,21.6905 C 17.3595,21.6415 17.251,21.448999999999998 17.3,21.259999999999998 L 17.5065,20.493499999999997 L 16.740000000000002,20.7 C 16.551000000000002,20.749 16.3585,20.6405 16.3095,20.4515 C 16.2605,20.266 16.369,20.0735 16.558,20.0245" /></svg>
