<?xml version="1.0" encoding="UTF-8" standalone="no"?>
<svg
   viewBox="0 0 24 24"
   version="1.1"
   id="svg1"
   sodipodi:docname="possible-snow-night.svg"
   inkscape:version="1.4.2 (ebf0e940d0, 2025-05-08)"
   xmlns:inkscape="http://www.inkscape.org/namespaces/inkscape"
   xmlns:sodipodi="http://sodipodi.sourceforge.net/DTD/sodipodi-0.dtd"
   xmlns="http://www.w3.org/2000/svg"
   xmlns:svg="http://www.w3.org/2000/svg">
  <defs
     id="defs1" />
  <sodipodi:namedview
     id="namedview1"
     pagecolor="#ffffff"
     bordercolor="#000000"
     borderopacity="0.25"
     inkscape:showpageshadow="2"
     inkscape:pageopacity="0.0"
     inkscape:pagecheckerboard="0"
     inkscape:deskcolor="#d1d1d1"
     inkscape:zoom="15.333333"
     inkscape:cx="14.152174"
     inkscape:cy="12.065217"
     inkscape:window-width="1503"
     inkscape:window-height="934"
     inkscape:window-x="2560"
     inkscape:window-y="973"
     inkscape:window-maximized="1"
     inkscape:current-layer="svg1" />
  <path
     id="path4"
     d="M 17.5,23 Q 15.2175,23 13.60875,21.39125 12,19.7825 12,17.5 12,15.2175 13.60875,13.60875 15.2175,12 17.5,12 19.7825,12 21.39125,13.60875 23,15.2175 23,17.5 23,19.7825 21.39125,21.39125 19.7825,23 17.5,23 m 0,-2.2 q 0.3025,0 0.495,-0.1925 0.1925,-0.1925 0.1925,-0.495 0,-0.3025 -0.1925,-0.495 -0.1925,-0.1925 -0.495,-0.1925 -0.3025,0 -0.495,0.1925 -0.1925,0.1925 -0.1925,0.495 0,0.3025 0.1925,0.495 Q 17.1975,20.8 17.5,20.8 m -0.495,-2.09 h 1.0175 v -0.275 q 0,-0.3025 0.15125,-0.53625 Q 18.325,17.665 18.545,17.445 18.93,17.115 19.15,16.8125 19.37,16.51 19.37,15.96 19.37,15.1625 18.8475,14.68125 18.325,14.2 17.5,14.2 16.8675,14.2 16.35875,14.57125 15.85,14.9425 15.63,15.575 l 0.88,0.385 Q 16.5925,15.63 16.85375,15.3825 17.115,15.135 17.5,15.135 q 0.4125,0 0.64625,0.20625 Q 18.38,15.5475 18.38,15.96 q 0,0.3025 -0.165,0.50875 Q 18.05,16.675 17.83,16.895 17.665,17.06 17.48625,17.225 17.3075,17.39 17.17,17.61 17.0875,17.775 17.04625,17.94 17.005,18.105 17.005,18.325 v 0.385" />
  <path
     id="path1"
     d="M 12 2 C 9.3 2 7 3.65 6 6 A 5 5 0 0 0 1 11 A 5 5 0 0 0 6 16 L 7 16 A 1 1 0 0 0 8 15 A 1 1 0 0 0 7 14 L 6 14 A 3 3 0 0 1 3 11 A 3 3 0 0 1 6 8 C 6.37 8 6.7305469 8.0694531 7.0605469 8.1894531 C 7.4505469 5.8194531 9.5 4 12 4 A 5 5 0 0 1 17 9 L 17 10 L 19 10 A 2 2 0 0 1 21 12 A 2 2 0 0 1 21 12.023438 A 6.5 6.5 0 0 1 22.677734 13.572266 A 4 4 0 0 0 23 12 A 4 4 0 0 0 19 8 L 18.5 8.0292969 C 18.24 4.6592969 15.43 2 12 2 z " />
  <path
     d="m 5.0497391,19.759391 1.314,-0.342 -0.966,-0.972 c -0.234,-0.228 -0.234,-0.612 0,-0.852 0.234,-0.234 0.624,-0.234 0.852,0 l 0.972,0.966 0.342,-1.314 c 0.084,-0.324 0.414,-0.51 0.732,-0.426 0.324,0.084 0.51,0.414 0.426,0.738 l -0.354,1.314 1.314,-0.354 c 0.3239999,-0.084 0.6539999,0.102 0.7379999,0.426 0.084,0.318 -0.102,0.648 -0.4259999,0.732 l -1.314,0.342 0.966,0.972 c 0.234,0.228 0.234,0.618 0,0.852 -0.234,0.234 -0.624,0.234 -0.852,0 l -0.972,-0.966 -0.342,1.314 c -0.084,0.324 -0.414,0.51 -0.732,0.426 -0.324,-0.084 -0.51,-0.414 -0.426,-0.738 l 0.354,-1.314 -1.314,0.354 c -0.324,0.084 -0.654,-0.102 -0.738,-0.426 -0.084,-0.318 0.102,-0.648 0.426,-0.732"
     id="path2" />
</svg>
