<?xml version="1.0" encoding="UTF-8" standalone="no"?>
<svg
   viewBox="0 0 24 24"
   version="1.1"
   id="svg1"
   sodipodi:docname="possible-precipitation-day.svg"
   inkscape:version="1.4.2 (ebf0e940d0, 2025-05-08)"
   xmlns:inkscape="http://www.inkscape.org/namespaces/inkscape"
   xmlns:sodipodi="http://sodipodi.sourceforge.net/DTD/sodipodi-0.dtd"
   xmlns="http://www.w3.org/2000/svg"
   xmlns:svg="http://www.w3.org/2000/svg">
  <defs
     id="defs1" />
  <sodipodi:namedview
     id="namedview1"
     pagecolor="#ffffff"
     bordercolor="#000000"
     borderopacity="0.25"
     inkscape:showpageshadow="2"
     inkscape:pageopacity="0.0"
     inkscape:pagecheckerboard="0"
     inkscape:deskcolor="#d1d1d1"
     inkscape:zoom="11.31"
     inkscape:cx="15.56145"
     inkscape:cy="9.7259063"
     inkscape:window-width="1503"
     inkscape:window-height="934"
     inkscape:window-x="2560"
     inkscape:window-y="973"
     inkscape:window-maximized="1"
     inkscape:current-layer="svg1" />
  <path
     id="path4"
     style="stroke-width:1.58887"
     d="m 17.847826,23.343617 q -2.307818,0 -3.934411,-1.626594 -1.626597,-1.626595 -1.626597,-3.934414 0,-2.307818 1.626597,-3.934411 1.626593,-1.626597 3.934411,-1.626597 2.307819,0 3.934414,1.626597 1.626594,1.626593 1.626594,3.934411 0,2.307819 -1.626594,3.934414 -1.626595,1.626594 -3.934414,1.626594 m 0,-2.224401 q 0.305856,0 0.500491,-0.194637 0.194635,-0.194635 0.194635,-0.500492 0,-0.305854 -0.194635,-0.50049 -0.194635,-0.194635 -0.500491,-0.194635 -0.305856,0 -0.500489,0.194635 -0.194637,0.194636 -0.194637,0.50049 0,0.305857 0.194637,0.500492 0.194633,0.194637 0.500489,0.194637 m -0.500489,-2.113185 h 1.028785 v -0.27805 q 0,-0.305856 0.152927,-0.5422 0.152928,-0.236342 0.375369,-0.458782 0.38927,-0.33366 0.611711,-0.639516 0.222438,-0.305854 0.222438,-0.861956 0,-0.806346 -0.528295,-1.292934 -0.528295,-0.486588 -1.362446,-0.486588 -0.639516,0 -1.15391,0.375368 -0.514392,0.375365 -0.736832,1.014881 l 0.889762,0.389273 q 0.08342,-0.33366 0.347562,-0.583906 0.264148,-0.250246 0.653418,-0.250246 0.417076,0 0.653418,0.208538 0.236344,0.208538 0.236344,0.625614 0,0.305856 -0.166832,0.514392 -0.16683,0.208538 -0.38927,0.43098 -0.16683,0.166829 -0.347562,0.33366 -0.180734,0.16683 -0.319758,0.389268 -0.08342,0.166833 -0.125123,0.333662 -0.04171,0.166829 -0.04171,0.389271 v 0.389271" />
  <path
     d="m 10,16.265 -0.25,0.28 c 0,0 -0.425,0.48 -0.855,1.11 C 8.465,18.28 8,19.03 8,19.75 a 2,2 0 0 0 2,2 2,2 0 0 0 2,-2 c 0,-0.72 -0.465,-1.47 -0.895,-2.095 -0.43,-0.63 -0.855,-1.11 -0.855,-1.11"
     id="path3" />
  <path
     d="m 10,17.825 c 0.09,0.12 0.185,0.255 0.28,0.395 0.22,0.31 0.72,1.045 0.72,1.53 0,0.555 -0.45,1 -1,1 a 1,1 0 0 1 -1,-1 C 9,19.265 9.5,18.53 9.72,18.22 9.815,18.08 9.91,17.95 10,17.825"
     id="path2" />
  <path
     id="path1"
     d="M 12 2 C 9.3 2 7 3.65 6 6 A 5 5 0 0 0 1 11 A 5 5 0 0 0 6 16 L 7 16 A 1 1 0 0 0 8 15 A 1 1 0 0 0 7 14 L 6 14 A 3 3 0 0 1 3 11 A 3 3 0 0 1 6 8 C 6.37 8 6.7305469 8.0694531 7.0605469 8.1894531 C 7.4505469 5.8194531 9.5 4 12 4 A 5 5 0 0 1 17 9 L 17 10 L 19 10 A 2 2 0 0 1 21 12 A 2 2 0 0 1 20.710938 13.035156 A 5.5 5.5 0 0 1 22.115234 14.507812 A 4 4 0 0 0 23 12 A 4 4 0 0 0 19 8 L 18.5 8.0292969 C 18.24 4.6592969 15.43 2 12 2 z " />
</svg>
