<?xml version="1.0" encoding="UTF-8" standalone="no"?>
<svg
   viewBox="0 0 24 24"
   version="1.1"
   id="svg1"
   sodipodi:docname="smoke.svg"
   inkscape:version="1.4.2 (ebf0e940d0, 2025-05-08)"
   xmlns:inkscape="http://www.inkscape.org/namespaces/inkscape"
   xmlns:sodipodi="http://sodipodi.sourceforge.net/DTD/sodipodi-0.dtd"
   xmlns="http://www.w3.org/2000/svg"
   xmlns:svg="http://www.w3.org/2000/svg">
  <defs
     id="defs1" />
  <sodipodi:namedview
     id="namedview1"
     pagecolor="#ffffff"
     bordercolor="#000000"
     borderopacity="0.25"
     inkscape:showpageshadow="2"
     inkscape:pageopacity="0.0"
     inkscape:pagecheckerboard="0"
     inkscape:deskcolor="#d1d1d1"
     inkscape:zoom="15.333333"
     inkscape:cx="9.0000002"
     inkscape:cy="11.739131"
     inkscape:window-width="1503"
     inkscape:window-height="934"
     inkscape:window-x="0"
     inkscape:window-y="29"
     inkscape:window-maximized="1"
     inkscape:current-layer="svg1" />
  <path
     d="m 13.749659,20.144985 -3.085217,-0.974279 0.649519,-2.110938 q 0.24357,-0.974278 0.16238,-1.887665 -0.08119,-0.913386 -0.649519,-1.847071 Q 9.8119479,11.782424 9.5480807,10.138328 9.2842135,8.4942324 9.8525428,6.6674594 L 10.502062,4.5565217 13.587279,5.5308006 12.93776,7.6417384 q -0.32476,0.933684 -0.202975,1.9282604 0.121785,0.9945762 0.690114,1.8064752 0.933684,1.542609 1.238146,3.247597 0.304462,1.704988 -0.263867,3.409976 l -0.649519,2.110938 m -7.1447126,0 L 3.5197297,19.170706 4.169249,17.059768 Q 4.4128187,16.126084 4.3316288,15.151806 4.2504389,14.177527 3.6821095,13.325032 2.6266407,11.823019 2.3830709,10.118031 2.1395012,8.4130425 2.7078306,6.6674594 L 3.3573499,4.5565217 6.4425665,5.5308006 5.7930472,7.6417384 q -0.3247596,0.933684 -0.2029747,1.9485579 0.1217848,1.0148737 0.6901142,1.7861777 0.974279,1.461419 1.2584436,3.2273 0.2841647,1.76588 -0.2841646,3.430273 l -0.6495193,2.110938 m 14.1270446,0 -3.085217,-0.974279 0.64952,-2.110938 q 0.243569,-0.933684 0.16238,-1.907962 -0.08119,-0.974279 -0.64952,-1.826774 -1.055469,-1.502013 -1.299038,-3.207001 -0.24357,-1.7049885 0.324759,-3.4505716 l 0.64952,-2.1109377 3.085216,0.9742789 -0.649519,2.1109378 q -0.32476,0.9742789 -0.202975,1.9282604 0.121785,0.9539812 0.690114,1.8064752 0.974279,1.542609 1.238147,3.247597 0.263867,1.704988 -0.263868,3.409976 l -0.649519,2.110938"
     id="path1"
     style="stroke-width:0.811899" />
</svg>
