<?xml version="1.0" encoding="UTF-8" standalone="no"?>
<svg
   viewBox="0 0 24 24"
   version="1.1"
   id="svg1"
   sodipodi:docname="very-light-sleet.svg"
   inkscape:version="1.4.2 (ebf0e940d0, 2025-05-08)"
   xmlns:inkscape="http://www.inkscape.org/namespaces/inkscape"
   xmlns:sodipodi="http://sodipodi.sourceforge.net/DTD/sodipodi-0.dtd"
   xmlns="http://www.w3.org/2000/svg"
   xmlns:svg="http://www.w3.org/2000/svg">
  <defs
     id="defs1" />
  <sodipodi:namedview
     id="namedview1"
     pagecolor="#ffffff"
     bordercolor="#000000"
     borderopacity="0.25"
     inkscape:showpageshadow="2"
     inkscape:pageopacity="0.0"
     inkscape:pagecheckerboard="0"
     inkscape:deskcolor="#d1d1d1"
     inkscape:zoom="21.684608"
     inkscape:cx="11.667262"
     inkscape:cy="20.014196"
     inkscape:window-width="1503"
     inkscape:window-height="934"
     inkscape:window-x="0"
     inkscape:window-y="29"
     inkscape:window-maximized="1"
     inkscape:current-layer="svg1" />
  <path
     d="m 12.742019,19.025828 0.808031,-0.21031 -0.594032,-0.597721 c -0.143896,-0.140206 -0.143896,-0.376343 0,-0.523929 0.143896,-0.143895 0.383722,-0.143895 0.523928,0 l 0.597722,0.594032 0.210309,-0.808031 c 0.05166,-0.19924 0.254585,-0.313619 0.450136,-0.261964 0.19924,0.05166 0.313619,0.254585 0.261964,0.453826 l -0.217688,0.80803 0.80803,-0.217688 c 0.199241,-0.05166 0.402171,0.06272 0.453826,0.261964 0.05166,0.195551 -0.06272,0.398481 -0.261964,0.450136 l -0.808031,0.210309 0.594032,0.597722 c 0.143895,0.140206 0.143895,0.380032 0,0.523928 -0.143896,0.143896 -0.383723,0.143896 -0.523929,0 l -0.597721,-0.594032 -0.21031,0.808031 c -0.05166,0.199241 -0.254585,0.313619 -0.450136,0.261964 -0.19924,-0.05165 -0.313619,-0.254585 -0.261964,-0.453825 l 0.217689,-0.808031 -0.808031,0.217689 c -0.19924,0.05166 -0.402171,-0.06272 -0.453825,-0.261964 -0.05166,-0.195551 0.06272,-0.398481 0.261964,-0.450136"
     id="path4"
     style="stroke-width:1.05418" />
  <path
     id="path2"
     d="m 9.6601637,18.060268 c 0.063,0.084 0.1295,0.1785 0.196,0.2765 0.1540003,0.217 0.5040003,0.7315 0.5040003,1.071 0,0.3885 -0.315,0.7 -0.7000003,0.7 a 0.7,0.7 0 0 1 -0.7,-0.7 c 0,-0.3395 0.35,-0.854 0.504,-1.071 0.0665,-0.098 0.133,-0.189 0.196,-0.2765 m 0,-1.092 -0.175,0.196 c 0,0 -0.2975,0.336 -0.5985,0.777 -0.301,0.4375 -0.6265,0.9625 -0.6265,1.4665 a 1.4,1.4 0 0 0 1.4,1.4 1.4,1.4 0 0 0 1.4000003,-1.4 c 0,-0.504 -0.3255,-1.029 -0.6265,-1.4665 -0.301,-0.441 -0.5985003,-0.777 -0.5985003,-0.777" />
  <path
     d="M 6,16 A 5,5 0 0 1 1,11 5,5 0 0 1 6,6 c 1,-2.35 3.3,-4 6,-4 3.43,0 6.24,2.66 6.5,6.03 L 19,8 a 4,4 0 0 1 4,4 4,4 0 0 1 -4,4 h -1 a 1,1 0 0 1 -1,-1 1,1 0 0 1 1,-1 h 1 a 2,2 0 0 0 2,-2 2,2 0 0 0 -2,-2 H 17 V 9 A 5,5 0 0 0 12,4 C 9.5,4 7.45,5.82 7.06,8.19 6.73,8.07 6.37,8 6,8 a 3,3 0 0 0 -3,3 3,3 0 0 0 3,3 h 1 a 1,1 0 0 1 1,1 1,1 0 0 1 -1,1 H 6"
     id="path1" />
</svg>
