<svg xmlns="http://www.w3.org/2000/svg" viewBox="0 0 24 24"><path d="M 6.0,16.0 A 5.0,5.0 0.0 0,1 1.0,11.0 A 5.0,5.0 0.0 0,1 6.0,6.0 C 7.0,3.65 9.3,2.0 12.0,2.0 C 15.43,2.0 18.24,4.66 18.5,8.03 L 19.0,8.0 A 4.0,4.0 0.0 0,1 23.0,12.0 A 4.0,4.0 0.0 0,1 19.0,16.0 L 18.0,16.0 A 1.0,1.0 0.0 0,1 17.0,15.0 A 1.0,1.0 0.0 0,1 18.0,14.0 L 19.0,14.0 A 2.0,2.0 0.0 0,0 21.0,12.0 A 2.0,2.0 0.0 0,0 19.0,10.0 L 17.0,10.0 L 17.0,9.0 A 5.0,5.0 0.0 0,0 12.0,4.0 C 9.5,4.0 7.45,5.82 7.06,8.19 C 6.73,8.07 6.37,8.0 6.0,8.0 A 3.0,3.0 0.0 0,0 3.0,11.0 A 3.0,3.0 0.0 0,0 6.0,14.0 L 7.0,14.0 A 1.0,1.0 0.0 0,1 8.0,15.0 A 1.0,1.0 0.0 0,1 7.0,16.0 L 6.0,16.0 M 7.999999999999999,18.1525 C 8.062999999999999,18.2365 8.1295,18.331 8.196,18.429 C 8.35,18.646 8.7,19.1605 8.7,19.5 C 8.7,19.8885 8.384999999999998,20.2 7.999999999999999,20.2 A 0.7,0.7 0.0 0,1 7.3,19.5 C 7.3,19.1605 7.65,18.646 7.803999999999999,18.429 C 7.8705,18.331 7.936999999999999,18.24 7.999999999999999,18.1525 M 7.999999999999999,17.060499999999998 L 7.824999999999999,17.2565 C 7.824999999999999,17.2565 7.5275,17.5925 7.2265,18.0335 C 6.9254999999999995,18.471 6.6,18.996 6.6,19.5 A 1.4,1.4 0.0 0,0 7.999999999999999,20.9 A 1.4,1.4 0.0 0,0 9.399999999999999,19.5 C 9.399999999999999,18.996 9.0745,18.471 8.773499999999999,18.0335 C 8.4725,17.5925 8.174999999999999,17.2565 8.174999999999999,17.2565 M 13.558,19.0245 L 14.3245,18.825 L 13.761000000000001,18.258 C 13.624500000000001,18.125 13.624500000000001,17.901 13.761000000000001,17.761 C 13.8975,17.624499999999998 14.125,17.624499999999998 14.258000000000001,17.761 L 14.825,18.3245 L 15.0245,17.558 C 15.073500000000001,17.369 15.266,17.2605 15.4515,17.3095 C 15.6405,17.3585 15.749,17.551 15.7,17.74 L 15.493500000000001,18.5065 L 16.26,18.299999999999997 C 16.449,18.250999999999998 16.6415,18.3595 16.6905,18.548499999999997 C 16.7395,18.733999999999998 16.631,18.926499999999997 16.442,18.975499999999997 L 15.6755,19.174999999999997 L 16.239,19.741999999999997 C 16.3755,19.875 16.3755,20.1025 16.239,20.238999999999997 C 16.1025,20.3755 15.875,20.3755 15.742,20.238999999999997 L 15.175,19.6755 L 14.9755,20.442 C 14.9265,20.631 14.734,20.7395 14.5485,20.6905 C 14.3595,20.6415 14.251000000000001,20.448999999999998 14.3,20.259999999999998 L 14.5065,19.493499999999997 L 13.74,19.7 C 13.551,19.749 13.3585,19.6405 13.3095,19.4515 C 13.2605,19.266 13.369,19.0735 13.558,19.0245" /></svg>
